HIERARCHY
ROOT Hips
{
 OFFSET 0.000000 0.000000 0.000000
 CHANNELS 6 Xposition Yposition Zposition Yrotation Xrotation Zrotation
 JOINT Chest
 {
  OFFSET 0.000000 9.585900 0.002600
  CHANNELS 3 Yrotation Xrotation Zrotation
  JOINT Chest2
  {
   OFFSET 0.000000 9.601200 -0.005300
   CHANNELS 3 Yrotation Xrotation Zrotation
   JOINT Chest3
   {
    OFFSET 0.000000 9.561800 0.000000
    CHANNELS 3 Yrotation Xrotation Zrotation
    JOINT Chest4
    {
     OFFSET 0.000000 9.552100 0.000000
     CHANNELS 3 Yrotation Xrotation Zrotation
     JOINT Neck
     {
      OFFSET 0.000000 14.453000 0.000000
      CHANNELS 3 Yrotation Xrotation Zrotation
      JOINT Head
      {
       OFFSET 0.000000 8.936500 -0.011300
       CHANNELS 3 Yrotation Xrotation Zrotation
       End Site
       {
        OFFSET 0.000000 17.073600 -0.006000
       }
      }
     }
     JOINT RightCollar
     {
      OFFSET -2.921100 9.558500 0.000000
      CHANNELS 3 Yrotation Xrotation Zrotation
      JOINT RightShoulder
      {
       OFFSET -13.519700 0.000000 0.000000
       CHANNELS 3 Yrotation Xrotation Zrotation
       JOINT RightElbow
       {
        OFFSET 0.000000 -29.696600 0.000000
        CHANNELS 3 Yrotation Xrotation Zrotation
        JOINT RightWrist
        {
         OFFSET 0.000000 -24.004700 0.000000
         CHANNELS 3 Yrotation Xrotation Zrotation
         End Site
         {
          OFFSET 0.000000 -17.728500 0.000000
         }
        }
       }
      }
     }
     JOINT LeftCollar
     {
      OFFSET 2.921100 9.558500 0.000000
      CHANNELS 3 Yrotation Xrotation Zrotation
      JOINT LeftShoulder
      {
       OFFSET 13.519700 0.000000 0.000000
       CHANNELS 3 Yrotation Xrotation Zrotation
       JOINT LeftElbow
       {
        OFFSET 0.000000 -29.696600 0.000000
        CHANNELS 3 Yrotation Xrotation Zrotation
        JOINT LeftWrist
        {
         OFFSET 0.000000 -24.004700 0.000000
         CHANNELS 3 Yrotation Xrotation Zrotation
         End Site
         {
          OFFSET 0.000000 -17.728500 0.000000
         }
        }
       }
      }
     }
    }
   }
  }
 }
 JOINT RightHip
 {
  OFFSET -7.771700 -0.012900 -0.001300
  CHANNELS 3 Yrotation Xrotation Zrotation
  JOINT RightKnee
  {
   OFFSET 0.000000 -40.869800 0.001200
   CHANNELS 3 Yrotation Xrotation Zrotation
   JOINT RightAnkle
   {
    OFFSET 0.000000 -39.717900 0.002100
    CHANNELS 3 Yrotation Xrotation Zrotation
    JOINT RightToe
    {
     OFFSET 0.000000 -4.965400 11.033500
     CHANNELS 3 Yrotation Xrotation Zrotation
     End Site
     {
      OFFSET 0.000000 -1.423100 5.872300
     }
    }
   }
  }
 }
 JOINT LeftHip
 {
  OFFSET 7.771700 -0.012900 -0.001300
  CHANNELS 3 Yrotation Xrotation Zrotation
  JOINT LeftKnee
  {
   OFFSET 0.000000 -40.869800 0.001200
   CHANNELS 3 Yrotation Xrotation Zrotation
   JOINT LeftAnkle
   {
    OFFSET 0.000000 -39.717900 0.002100
    CHANNELS 3 Yrotation Xrotation Zrotation
    JOINT LeftToe
    {
     OFFSET 0.000000 -4.965400 11.033500
     CHANNELS 3 Yrotation Xrotation Zrotation
     End Site
     {
      OFFSET 0.000000 -1.423100 5.872300
     }
    }
   }
  }
 }
}
MOTION
Frames: 9
Frame Time: 0.008333
0.000000 85.388000 0.000000 0.000000 -5.767877 0.000000 0.000000 11.653817 0.000000 0.000000 -5.885947 0.000000 0.000000 -0.000000 0.000000 0.000000 -0.000000 0.000000 0.000000 12.528835 0.000000 0.000000 0.711642 0.000000 0.000000 -0.000000 0.000000 0.000000 0.000000 -90.000000 0.000000 -2.309062 0.000000 0.000000 2.309062 0.000000 0.000000 -0.000000 0.000000 0.000000 -0.000000 90.000000 0.000000 -2.309062 0.000000 0.000000 2.309062 0.000000 0.000000 8.520406 0.000000 0.000000 1.905762 0.000000 -0.000000 -4.658285 0.000000 0.000000 -0.000000 0.000000 0.000000 8.520406 0.000000 0.000000 1.905762 0.000000 -0.000000 -4.658285 0.000000 0.000000 -0.000000 0.000000
-13.102069 43.877035 25.677822 176.169548 -28.413282 -1.557314 -1.733731 22.392557 2.402699 -0.253804 3.167635 0.479218 -0.383209 5.033808 0.745648 -1.119290 18.727758 2.676019 -1.893651 13.509027 -2.443989 -1.428095 -11.508807 -2.129028 12.180580 2.509763 -4.167610 -19.675996 -7.115759 -9.819403 -92.018546 -79.204257 101.470919 -6.908270 5.177477 -24.307513 -17.587990 -2.635864 -8.053743 13.633777 -9.097089 3.619592 94.232931 -67.879557 -113.223432 16.401150 11.278777 15.769202 -3.557733 -61.987871 9.256339 -164.180697 68.657524 -160.963419 -10.684511 -25.390680 8.451901 0.741737 -0.511989 0.379105 3.425801 -46.389619 1.592758 -179.345643 56.610308 -179.529885 -4.432876 -43.056377 4.209224 -0.018347 -0.001506 0.005582
-13.092215 43.859871 25.668597 176.166270 -28.440180 -1.551197 -1.719558 22.335860 2.380847 -0.246042 3.122077 0.467571 -0.377140 4.997696 0.735855 -1.111594 18.717811 2.665543 -1.866186 13.427176 -2.448223 -1.398306 -11.593176 -2.139710 12.175558 2.516784 -4.147344 -19.381826 -6.887107 -9.661412 -95.127371 -79.867374 105.257526 -6.252429 5.380695 -23.299887 -17.560185 -2.627999 -8.045807 13.262164 -8.983700 3.656709 94.965542 -68.338561 -114.657160 16.154105 11.736128 15.489328 -3.684588 -61.996003 9.433970 -163.965585 68.590755 -160.813136 -10.727124 -25.346447 8.387652 0.789904 -0.604665 0.473692 3.412836 -46.366861 1.615975 -179.319018 56.591103 -179.518593 -4.443442 -43.064461 4.214395 -0.019408 0.003416 0.006240
-13.078674 43.841093 25.660155 176.166500 -28.461040 -1.562074 -1.708324 22.316775 2.384038 -0.231139 3.040561 0.444852 -0.375776 4.994060 0.733839 -1.101210 18.673390 2.644392 -1.835197 13.341583 -2.452246 -1.364982 -11.681316 -2.150994 12.170809 2.515671 -4.126516 -19.105402 -6.669699 -9.503315 -98.667285 -80.453712 109.486685 -5.647848 5.551719 -22.300417 -17.537506 -2.624598 -8.032174 12.895237 -8.870859 3.690653 95.829782 -68.808959 -116.190657 15.883097 12.234486 15.229408 -3.808218 -62.006645 9.606340 -163.778230 68.529327 -160.672419 -10.725839 -25.316090 8.306605 0.780086 -0.720692 0.544619 3.386715 -46.354409 1.657072 -179.297726 56.568185 -179.503832 -4.454249 -43.074582 4.216562 -0.014905 0.009199 0.006270
-13.063062 43.821437 25.654426 176.160070 -28.465360 -1.579778 -1.685975 22.282948 2.399082 -0.225852 3.009891 0.434163 -0.366538 4.943655 0.717455 -1.090586 18.628595 2.622480 -1.803340 13.253715 -2.456426 -1.330739 -11.771697 -2.162679 12.171219 2.505652 -4.098858 -18.851514 -6.467420 -9.356875 -102.677575 -80.970585 114.184085 -5.099598 5.692024 -21.298660 -17.518516 -2.631990 -8.012164 12.535011 -8.755923 3.716233 96.824793 -69.304665 -117.818981 15.578492 12.775013 14.976556 -3.904172 -62.026603 9.750189 -163.625553 68.479692 -160.553303 -10.653454 -25.316190 8.225365 0.778608 -0.806334 0.544728 3.365618 -46.362573 1.701142 -179.297556 56.544290 -179.499659 -4.456842 -43.083394 4.208921 -0.016230 0.014431 0.004434
-13.044295 43.800597 25.655100 176.114877 -28.432181 -1.600188 -1.616088 22.178395 2.427042 -0.220450 2.997694 0.427479 -0.361483 4.914817 0.708936 -1.078942 18.584405 2.601174 -1.772842 13.164980 -2.460507 -1.297926 -11.862903 -2.174011 12.173926 2.486778 -4.061350 -18.612212 -6.282402 -9.232319 -107.304775 -81.436635 119.473289 -4.595532 5.800993 -20.273445 -17.503469 -2.649111 -7.985384 12.177669 -8.641913 3.735271 97.967333 -69.823553 -119.556106 15.242714 13.351434 14.727404 -3.969650 -62.073429 9.883741 -163.568388 68.451033 -160.504645 -10.518467 -25.389732 8.165421 0.698499 -0.781173 0.495560 3.340400 -46.412041 1.791408 -179.282993 56.519528 -179.492391 -4.461514 -43.094277 4.201227 -0.023074 0.017914 0.005588
-13.028373 43.784276 25.652775 176.096274 -28.421939 -1.617225 -1.573468 22.103000 2.436419 -0.208088 2.965930 0.415318 -0.360647 4.908306 0.708660 -1.066402 18.541990 2.581119 -1.744662 13.075643 -2.464823 -1.267521 -11.954661 -2.185161 12.172732 2.462843 -4.018554 -18.384174 -6.119400 -9.122577 -112.766459 -81.869703 125.556221 -4.108155 5.877839 -19.207673 -17.494388 -2.667989 -7.955737 11.814370 -8.539970 3.757722 99.275728 -70.348711 -121.418797 14.875686 13.960543 14.466684 -4.045395 -62.103463 10.026960 -163.476822 68.416277 -160.430522 -10.518012 -25.410192 8.158974 0.709616 -0.771751 0.459539 3.310310 -46.432557 1.858943 -179.261105 56.503081 -179.479794 -4.476583 -43.099746 4.207506 -0.022300 0.020621 0.004782
-13.010416 43.772664 25.648584 176.104852 -28.430028 -1.662190 -1.545251 22.054915 2.461709 -0.197842 2.954034 0.414358 -0.355525 4.881987 0.701084 -1.053967 18.501258 2.562088 -1.718232 12.986725 -2.469620 -1.238840 -12.045959 -2.196503 12.164283 2.439681 -3.975173 -18.155465 -5.980621 -9.012146 -119.326392 -82.270148 132.669785 -3.610324 5.920839 -18.089960 -17.497913 -2.674966 -7.928454 11.441581 -8.465604 3.789713 100.783214 -70.874728 -123.433172 14.485820 14.598698 14.163220 -4.178196 -62.111224 10.226362 -163.352351 68.373283 -160.325478 -10.551712 -25.416607 8.114584 0.744671 -0.775486 0.480347 3.239832 -46.432719 1.945851 -179.232929 56.488871 -179.458764 -4.472057 -43.107232 4.200824 -0.023275 0.028212 0.002446
-13.000098 43.762183 25.647878 176.109527 -28.415131 -1.665618 -1.520860 21.987031 2.453264 -0.194593 2.944614 0.411232 -0.350609 4.856416 0.693949 -1.041858 18.461533 2.544547 -1.691790 12.898232 -2.475278 -1.210045 -12.136789 -2.208828 12.149381 2.418970 -3.933515 -17.904382 -5.863439 -8.893297 -127.223392 -82.611551 141.024422 -3.086404 5.917044 -16.917136 -17.520462 -2.660949 -7.905114 11.056473 -8.425019 3.828137 102.539416 -71.398255 -125.622700 14.077160 15.264522 13.763004 -4.204258 -62.134519 10.274490 -163.328041 68.344380 -160.310459 -10.503324 -25.487419 8.074589 0.700866 -0.732673 0.476219 3.215447 -46.454062 1.971049 -179.213644 56.486847 -179.455010 -4.477301 -43.101140 4.203545 -0.022423 0.040756 -0.001287
